<svg width="20" height="21" viewBox="0 0 20 21" fill="none" xmlns="http://www.w3.org/2000/svg">
<path d="M7.98828 17.9922V20.0178L7.49847 19.6221C7.42279 19.5609 5.6221 18.099 3.79608 16.0026C1.27716 13.1106 0 10.5146 0 8.28696V8.06616C0 3.66141 3.58353 0.0778809 7.98828 0.0778809C12.393 0.0778809 15.9766 3.66141 15.9766 8.06616V8.28696C15.9766 8.47403 15.9666 8.664 15.9486 8.85626L14.3864 7.43109C14.0665 4.1828 11.3193 1.63657 7.98828 1.63657C4.44305 1.63657 1.55869 4.52094 1.55869 8.06616V8.28696C1.55869 12.0513 6.40884 16.6083 7.98828 17.9922ZM12.7812 16.8726H15.1192V14.5347H12.7812V16.8726ZM7.98828 4.75394C9.81461 4.75394 11.3005 6.23984 11.3005 8.06616C11.3005 9.89249 9.81461 11.3784 7.98828 11.3784C6.16196 11.3784 4.67606 9.89249 4.67606 8.06616C4.67606 6.23984 6.16196 4.75394 7.98828 4.75394ZM7.98828 6.31262C7.02133 6.31262 6.23474 7.09921 6.23474 8.06616C6.23474 9.03296 7.02133 9.8197 7.98828 9.8197C8.95508 9.8197 9.74182 9.03296 9.74182 8.06616C9.74182 7.09921 8.95508 6.31262 7.98828 6.31262ZM18.9496 15.8135L18.5114 15.4137V17.916C18.5114 19.0812 17.5633 20.0291 16.3982 20.0291H11.4633C10.2982 20.0291 9.35013 19.0812 9.35013 17.916V15.4137L8.9119 15.8135L7.86148 14.6621L13.9307 9.12512L20 14.6621L18.9496 15.8135ZM16.9527 13.9918L13.9307 11.235L10.9088 13.9918V17.9159C10.9088 18.2216 11.1575 18.4704 11.4633 18.4704H16.3982C16.7039 18.4704 16.9527 18.2216 16.9527 17.9159V13.9918Z" fill="#3E767B"/>
</svg>
