<svg width="72" height="72" viewBox="0 0 72 72" fill="none" xmlns="http://www.w3.org/2000/svg">
<path fill-rule="evenodd" clip-rule="evenodd" d="M47.7434 38.2749C49.4539 35.8686 50.3579 33.031 50.3579 30.0688C50.3579 22.2498 43.9968 15.8887 36.1777 15.8887C34.2551 15.8887 32.3909 16.2668 30.6358 17.0127C29.9434 17.3069 30.3945 18.3887 31.0943 18.0911C32.7034 17.4072 34.4136 17.0605 36.1777 17.0605C43.3506 17.0605 49.186 22.896 49.186 30.0688C49.186 32.7861 48.3567 35.3892 46.7881 37.5962C45.2532 39.7559 43.1328 41.3772 40.6565 42.2854C40.4258 42.3704 40.2727 42.5898 40.2727 42.8357V44.0864L36.7642 44.2942V39.0076L38.5222 37.366C39.3301 37.3418 41.9377 37.1269 43.6619 35.4028C45.6797 33.3848 45.6306 30.1558 45.6277 30.0193C45.6206 29.7058 45.3684 29.4536 45.0552 29.4463C44.9187 29.4431 41.6897 29.3943 39.6714 31.4124C37.9685 33.1152 37.7378 35.6807 37.709 36.5222L36.7642 37.4043V31.7581C37.0552 31.4465 37.6445 30.7622 38.1443 29.8401C38.5032 29.1787 37.4736 28.6191 37.1145 29.2817C36.824 29.8171 36.4959 30.2627 36.2363 30.5796C36.2173 30.5776 36.1978 30.5764 36.1782 30.5764C36.1587 30.5764 36.1392 30.5776 36.1201 30.5796C35.5137 29.8374 34.5283 28.3799 34.5283 26.7468C34.5283 25.0596 35.5806 23.5596 36.1787 22.843C36.7778 23.5574 37.8276 25.0522 37.8276 26.7468C37.8276 26.8826 37.8208 27.0215 37.8071 27.1597C37.7337 27.9082 38.8997 28.0244 38.9736 27.2744C38.991 27.0984 38.9995 26.9209 38.9995 26.7468C38.9995 23.8931 36.6817 21.6443 36.5828 21.55C36.3565 21.3335 35.9995 21.3335 35.7732 21.55C35.6743 21.6443 33.3565 23.8928 33.3565 26.7468C33.3565 29.1704 35.0276 31.1567 35.5923 31.7588V37.4019L34.6463 36.5156C34.6165 35.6675 34.3826 33.1108 32.6839 31.4121C30.6658 29.394 27.4363 29.4429 27.3003 29.4463C26.9871 29.4534 26.7349 29.7058 26.7278 30.019C26.7246 30.1553 26.6756 33.3843 28.6934 35.4026C30.4231 37.1323 33.041 37.3433 33.8401 37.366L35.5923 39.0076V44.3633L32.083 44.5715V42.8354C32.083 42.5898 31.9295 42.3701 31.6987 42.2854C29.2227 41.3772 27.1026 39.7556 25.5674 37.5957C23.9988 35.3887 23.1697 32.7859 23.1697 30.0686C23.1697 27.9807 23.6492 25.9868 24.5945 24.1426C25.4971 22.3826 26.8142 20.825 28.4031 19.6384C29.0122 19.1833 28.304 18.2505 27.7019 18.6992C25.9702 19.9924 24.5354 21.6897 23.5518 23.6079C22.5205 25.6191 21.9978 27.793 21.9978 30.0686C21.9978 33.0308 22.9019 35.8682 24.6121 38.2744C26.2051 40.5156 28.3767 42.2253 30.9111 43.2383V44.6409C28.4182 44.6948 28.3819 48.5095 30.9111 48.4521V49.9402C28.3172 50.0249 28.5252 53.9248 31.1509 53.7393C31.6502 54.9971 32.8787 55.8887 34.3118 55.8887H38.0437C39.6982 55.8887 41.0798 54.7009 41.3823 53.1333L42.2122 53.084C44.6494 52.9392 44.4524 49.1387 41.9868 49.2842L41.4443 49.3162V47.9121C41.4443 47.8845 41.4431 47.8574 41.4421 47.8301L42.2122 47.7847C44.6465 47.6406 44.4578 43.8384 41.9868 43.9846L41.4443 44.0166V43.2385C43.979 42.2253 46.1506 40.5161 47.7434 38.2749ZM40.5002 32.241C41.6934 31.0476 43.4981 30.7312 44.428 30.6475C44.3459 31.5762 44.0315 33.376 42.8335 34.574C41.6401 35.7671 39.8357 36.0837 38.9058 36.1672C38.9876 35.2388 39.302 33.439 40.5002 32.241ZM27.929 30.6479C28.8596 30.7314 30.6631 31.0486 31.8552 32.241C33.0132 33.3987 33.3455 35.1323 33.4404 36.084C33.4209 36.0998 33.4019 36.1169 33.384 36.1357L33.3765 36.1444L33.3633 36.1606C32.4131 36.0671 30.6846 35.7368 29.522 34.574C28.3296 33.3813 28.013 31.5781 27.929 30.6479ZM42.1006 45.1533C43.0149 45.1533 43.0564 46.5605 42.1426 46.6147L30.9133 47.2803C30.7114 47.293 30.5186 47.2229 30.3706 47.085C30.2229 46.9468 30.1402 46.7593 30.1384 46.5571C30.1348 46.167 30.4373 45.8433 30.8267 45.8201L42.0562 45.1543C42.071 45.1536 42.0859 45.1533 42.1006 45.1533ZM42.5986 50.6494C43.0562 51.0767 42.7668 51.8772 42.1428 51.9141L39.3462 52.0798C38.5955 52.1243 38.6636 53.2934 39.4158 53.2497L40.1531 53.206C39.8538 54.0835 39.0215 54.7168 38.0437 54.7168H34.3118C33.5142 54.7168 32.814 54.2956 32.4199 53.6645L36.7593 53.4072C37.5103 53.3628 37.4419 52.1951 36.69 52.2375L30.9133 52.5801C29.9715 52.637 29.8867 51.1753 30.8267 51.1196L42.0562 50.4541C42.2578 50.4419 42.4507 50.5115 42.5986 50.6494ZM32.083 49.8708V48.385L40.272 47.8999L40.2722 47.9054L40.2725 47.9121V49.3857L32.083 49.8708ZM24.3053 19.376C24.8283 19.9112 25.6676 19.094 25.144 18.5571L22.8512 16.2095C22.3258 15.6712 21.4865 16.489 22.0129 17.0283L24.3053 19.376ZM21.8865 22.7794L19.0645 21.1049C18.4163 20.7204 19.0154 19.7133 19.6624 20.0971L22.4847 21.7719C23.1351 22.1576 22.5286 23.1601 21.8865 22.7794ZM17.2716 25.8059L20.4313 26.6931C21.1545 26.8959 21.4738 25.7685 20.748 25.5649L17.5885 24.6777C16.8639 24.4746 16.5463 25.6025 17.2716 25.8059ZM20.0521 29.6783C20.8014 29.6873 20.7931 30.8501 20.0451 30.8501C20.0431 30.8501 20.0407 30.8501 20.0382 30.8499L16.757 30.8108C15.9979 30.802 16.0204 29.6155 16.7707 29.6392L20.0521 29.6783ZM21.1569 34.2544C21.0771 33.9407 20.7583 33.7515 20.4445 33.8316L17.2648 34.6433C16.5358 34.8291 16.8256 35.9649 17.5546 35.7786L20.7343 34.9671C21.0478 34.8872 21.237 34.5679 21.1569 34.2544ZM21.8991 37.7417C22.1811 37.5832 22.5385 37.6836 22.6967 37.9658C22.8552 38.248 22.7551 38.605 22.4728 38.7634L19.6115 40.3701C18.9584 40.7373 18.3808 39.7178 19.0378 39.3484L21.8991 37.7417ZM24.3156 41.1423L21.9675 43.4351C21.4365 43.9536 22.2441 44.8027 22.7863 44.2734L25.134 41.981C25.6725 41.4553 24.8544 40.6157 24.3156 41.1423ZM47.2121 41.9707C46.6857 41.4319 47.5251 40.6138 48.0505 41.1523L50.3432 43.5005C50.8674 44.0369 50.0275 44.8545 49.5046 44.3189L47.2121 41.9707ZM53.2915 39.4233L50.4692 37.7487C49.8222 37.3652 49.2231 38.372 49.8713 38.7563L52.6933 40.4308C53.3354 40.8117 53.9416 39.8092 53.2915 39.4233ZM51.9247 33.8352L55.0841 34.7219C55.8099 34.9258 55.4908 36.0535 54.7675 35.8501L51.6078 34.9634C50.8825 34.7598 51.2006 33.6316 51.9247 33.8352ZM55.5988 29.7173L52.3176 29.6783C51.5673 29.6546 51.5449 30.8411 52.3034 30.8499L55.5851 30.889C56.3351 30.9129 56.3578 29.7264 55.5988 29.7173ZM51.9113 26.6968C51.6073 26.7744 51.2765 26.5791 51.1986 26.2739C51.1188 25.96 51.308 25.6411 51.6212 25.5613L54.8012 24.7498C55.5312 24.5627 55.82 25.6992 55.091 25.885L51.9113 26.6968ZM49.6588 22.5626C49.8134 22.8372 50.1837 22.9398 50.4569 22.7862L53.318 21.1795C53.974 20.8111 53.4013 19.7891 52.7443 20.1578L49.883 21.7649C49.601 21.9234 49.5004 22.2803 49.6588 22.5626ZM48.0404 19.3858C47.9264 19.4971 47.7787 19.5528 47.631 19.5528C47.1117 19.5528 46.8559 18.9043 47.2216 18.5474L49.5697 16.2547C50.1085 15.7281 50.9264 16.5674 50.3881 17.0933L48.0404 19.3858Z" fill="#3E767B"/>
<circle cx="36.1779" cy="35.8889" r="35.2145" stroke="#3E767B" stroke-opacity="0.2"/>
<circle cx="36.1777" cy="35.8889" r="29.2397" stroke="#3E767B" stroke-opacity="0.2"/>
<circle cx="62.7352" cy="47.6678" r="3.18243" fill="#67AFA8"/>
<circle cx="30.0564" cy="7.22189" r="2.55196" fill="#67AFA8"/>
</svg>
