<svg width="22" height="21" viewBox="0 0 22 21" fill="none" xmlns="http://www.w3.org/2000/svg">
<path d="M0.960336 5.32707L1.05928 5.34158L0.960336 5.32707C0.82325 6.26181 0.920084 7.19332 1.24754 8.09483L1.34153 8.06069L1.24754 8.09483C2.25428 10.8663 3.89382 13.4384 5.98918 15.5338C8.08454 17.6291 10.6567 19.2686 13.4281 20.2754C14.0647 20.5067 14.7163 20.6229 15.3739 20.6229C15.6472 20.6229 15.9215 20.6028 16.1957 20.5626C17.0713 20.4341 17.9208 20.0951 18.6529 19.5822C19.3883 19.0669 19.9999 18.3801 20.4218 17.5955C20.8718 16.7588 21.0999 15.8453 21.0999 14.8816C21.0999 14.5398 20.8611 14.2443 20.5269 14.1727L20.5059 14.2705L20.5269 14.1727L15.949 13.1917L15.9489 13.1917C15.7085 13.1403 15.4583 13.2141 15.2844 13.3879L15.2844 13.388L13.6594 15.013C10.5856 13.4497 8.07314 10.9373 6.50989 7.86344L8.13489 6.23847L8.13491 6.23846C8.30876 6.06456 8.38266 5.81437 8.33114 5.5739L8.33114 5.5739L7.35016 0.996L7.35016 0.995994C7.27852 0.661779 6.9831 0.422949 6.64127 0.422949C5.67754 0.422949 4.76413 0.651056 3.92742 1.10098L3.92742 1.10098C3.1428 1.52291 2.45597 2.13454 1.94074 2.86988L2.02264 2.92726L1.94074 2.86988C1.42777 3.60201 1.08875 4.45151 0.960336 5.32707ZM3.1282 3.70196L3.1282 3.70196C3.83077 2.69923 4.87899 2.06604 6.06327 1.91047L6.83076 5.4921L5.11868 7.20418C5.11868 7.20418 5.11867 7.20419 5.11867 7.20419C4.90258 7.42024 4.84523 7.74856 4.97513 8.02508L5.06564 7.98256C6.81244 11.7008 9.82216 14.7105 13.5404 16.4573L13.4978 16.5478C13.4978 16.5478 13.4978 16.5478 13.4978 16.5478C13.7744 16.6778 14.1027 16.6203 14.3187 16.4043L16.0308 14.6922L19.6125 15.4597C19.4569 16.6439 18.8237 17.6922 17.821 18.3947C16.6654 19.2044 15.2455 19.3929 13.9231 18.9126C8.64937 16.9968 4.52611 12.8736 2.61036 7.5998C2.12999 6.27741 2.31853 4.85751 3.1282 3.70196Z" fill="#3E767B" stroke="#3E767B" stroke-width="0.2"/>
</svg>
