<svg width="72" height="72" viewBox="0 0 72 72" fill="none" xmlns="http://www.w3.org/2000/svg">
<path fill-rule="evenodd" clip-rule="evenodd" d="M42.3679 49.3791C42.9506 50.2094 43.5012 50.9936 44.8593 51.1228C48.6992 51.4888 49.3068 53.4272 49.3947 55.2751C49.4106 55.605 49.1396 55.8887 48.8098 55.8887H29.7548C29.0013 55.8887 29.0026 54.7168 29.7548 54.7168H48.173C48.0107 53.5059 47.4069 52.5427 44.7485 52.2895C42.8526 52.1089 42.052 50.9687 41.4088 50.0524L41.4086 50.0522C40.9377 49.3811 40.6222 48.9636 40.0964 48.8445C39.2608 48.6544 38.7199 48.8909 37.9711 49.2183L37.9701 49.2187C37.3449 49.4922 36.6359 49.802 35.6335 49.9177C34.5496 50.0424 33.7756 49.5373 33.0925 49.0915L33.0922 49.0913C32.2763 48.5581 31.4943 48.1848 30.5079 48.5056C29.6283 48.7915 29.2418 49.5696 28.8815 50.3559C28.453 51.292 27.9196 52.4565 26.3893 52.616C25.1781 52.7422 24.3068 53.126 23.7999 53.7573C23.5333 54.0894 23.4103 54.4404 23.3546 54.7168H26.5516C27.3053 54.7168 27.3043 55.8887 26.5516 55.8887H22.732C22.4339 55.8887 22.1837 55.6653 22.1498 55.3694C22.1441 55.3184 22.0167 54.1064 22.8866 53.0237C23.5963 52.1394 24.734 51.6101 26.2682 51.4502C27.0924 51.3645 27.3798 50.821 27.8163 49.8679C28.3202 48.7678 28.9425 47.7719 30.161 47.3862C31.4865 46.967 32.6225 47.385 33.7328 48.1098C34.2477 48.4458 34.672 48.7224 35.1847 48.7597V44.4914L32.4513 41.6779C31.2606 41.6381 27.6083 41.3141 25.1927 38.8988C22.3348 36.0412 22.4049 31.4511 22.4093 31.257C22.4164 30.944 22.6686 30.6915 22.9818 30.6845C23.1752 30.6801 27.7662 30.61 30.6239 33.4677C33.2531 36.0968 33.4044 40.1916 33.4083 40.9814L35.1845 42.8095V30.6112C34.8852 30.298 34.2592 29.599 33.6342 28.6276C33.2262 27.9945 34.2123 27.361 34.6193 27.9935C34.8112 28.2914 35.0033 28.5602 35.1845 28.7989V22.2784C35.1845 21.525 36.3564 21.5262 36.3564 22.2784V28.7948C37.2548 27.609 38.4391 25.6275 38.4391 23.4229C38.4391 20.6707 36.6061 18.2779 35.7711 17.3309C34.9367 18.2796 33.1017 20.679 33.1017 23.4229C33.1017 23.973 33.1762 24.5438 33.3229 25.1188C33.5094 25.8487 32.3739 26.1378 32.1876 25.4086C32.0165 24.7391 31.9298 24.0711 31.9298 23.4229C31.9298 19.3814 35.2255 16.1849 35.3654 16.0511C35.5922 15.8345 35.9486 15.8345 36.1754 16.0511C36.3156 16.1849 39.611 19.3814 39.611 23.4229C39.611 26.9708 37.0717 29.8671 36.3564 30.6122V37.0343L38.287 35.1586C38.3268 33.9682 38.651 30.3158 41.0661 27.9008C41.6713 27.2958 42.4037 26.7765 43.2431 26.357C43.9169 26.0206 44.4396 27.0694 43.7668 27.4056C43.0405 27.7682 42.4106 28.2137 41.8947 28.7294C40.3659 30.2584 39.7939 32.4301 39.5802 33.9022L44.0685 29.5419C44.6091 29.0175 45.4247 29.8585 44.8852 30.3827L40.2939 34.8432C41.7648 34.652 44.0727 34.099 45.6689 32.5033C47.6159 30.5568 48.0114 27.5673 48.0905 26.308C47.8105 26.3253 47.446 26.358 47.028 26.42C46.2829 26.5304 46.112 25.3712 46.8564 25.2608C47.9287 25.1019 48.6777 25.1168 48.7085 25.1175C49.0219 25.1246 49.2739 25.3768 49.281 25.69C49.2856 25.8841 49.3554 30.4742 46.4975 33.3319C43.8688 35.9604 39.7741 36.112 38.9833 36.1161L36.3564 38.6681V48.582C36.7787 48.4604 37.1435 48.3012 37.5004 48.145C38.3085 47.7915 39.1442 47.4262 40.3556 47.7019C41.3484 47.9271 41.8662 48.6646 42.3672 49.3782L42.3679 49.3791ZM23.6009 31.8764C23.6822 33.1378 24.0814 36.1308 26.0214 38.0705C27.545 39.5939 29.7181 40.1669 31.1923 40.382L26.8343 35.8969C26.6088 35.6649 26.6144 35.2939 26.8463 35.0683C27.0785 34.8429 27.4493 34.8483 27.6747 35.0802L32.1359 39.6716C31.9445 38.2006 31.3915 35.8927 29.7955 34.2965C27.8558 32.3568 24.8631 31.9577 23.6009 31.8764ZM30.8655 50.8343C30.1116 50.8343 30.1103 52.0061 30.8655 52.0061C31.6196 52.0061 31.6208 50.8343 30.8655 50.8343ZM36.9154 52.5508C36.1612 52.5508 36.16 53.7226 36.9154 53.7226C37.6695 53.7226 37.6707 52.5508 36.9154 52.5508ZM40.1036 50.4255C39.3494 50.4255 39.3482 51.5974 40.1036 51.5974C40.8575 51.5974 40.8587 50.4255 40.1036 50.4255Z" fill="#3E767B"/>
<circle cx="35.7678" cy="35.8889" r="35.2145" stroke="#3E767B" stroke-opacity="0.2"/>
<circle cx="35.7676" cy="35.8889" r="29.2397" stroke="#3E767B" stroke-opacity="0.2"/>
<circle cx="52.4578" cy="11.3492" r="3.18243" fill="#67AFA8"/>
<circle cx="15.3005" cy="55.8889" r="2.55196" fill="#67AFA8"/>
</svg>
