<svg width="73" height="72" viewBox="0 0 73 72" fill="none" xmlns="http://www.w3.org/2000/svg">
<path d="M55.8522 21.9089C55.2743 20.0915 54.4911 18.7903 54.4579 18.7356C54.3295 18.5239 54.0651 18.4138 53.8256 18.4687C53.7635 18.4829 52.2845 18.8281 50.5785 19.6802C48.2753 20.8301 46.6664 22.3652 45.9252 24.1189C45.3082 25.5793 45.2196 27.3647 45.6573 29.3372C44.725 28.2959 43.6761 27.385 42.5328 26.6182C42.1837 25.9285 41.2606 24.2305 39.8175 22.4558C39.3421 21.8716 38.4278 22.6047 38.9081 23.1948C39.8805 24.3909 40.6124 25.5671 41.0702 26.3752L35.7325 25.3347L30.6612 18.4175C31.1537 18.4243 31.6478 18.4719 32.1395 18.5683C33.6983 18.8735 35.2381 19.6675 36.7169 20.9277C37.2962 21.4216 38.0487 20.5227 37.4769 20.0356C35.8434 18.6435 34.1234 17.7627 32.3646 17.4182C29.6798 16.8928 26.5484 17.5825 23.3082 19.4136C20.8932 20.7783 19.2782 22.2773 19.2108 22.3403C18.9947 22.5422 18.9603 22.9089 19.1412 23.1448C19.378 23.6306 20.2755 25.3833 21.7694 27.2703C22.65 28.3828 23.5787 29.335 24.5394 30.1174C24.2665 30.3462 24.0008 30.5854 23.7438 30.8372C22.3707 32.1802 21.3194 33.7644 20.6293 35.4963C20.0191 37.0266 19.691 38.6728 19.6727 40.3696C19.6424 43.1443 20.4464 45.8203 21.9982 48.1089C23.514 50.3442 25.6332 52.0605 28.1263 53.072C28.8241 53.3545 29.2652 52.2693 28.567 51.9861C27.6637 51.6196 26.815 51.1501 26.0323 50.5918C26.1324 50.0366 26.3646 48.0386 25.0375 45.9702C24.8517 45.6809 25.4071 44.5447 25.7386 43.866C26.0809 43.1665 26.4342 42.4434 26.5992 41.7624C26.7745 41.0391 26.5773 40.4319 26.0292 40.0059C25.6268 39.6931 25.1002 39.5312 24.6361 39.3884C24.3346 39.2957 23.9928 39.1907 23.8707 39.0889C23.6192 38.8782 23.2086 38.0996 22.8785 37.4744C22.5123 36.7808 22.1637 36.1206 21.8077 35.7141C22.6087 33.8118 23.8954 32.1284 25.5067 30.8406C26.9786 31.8433 28.6586 32.5351 30.4442 32.6753C28.3734 34.2798 27.7035 36.3289 28.661 38.2971C29.7792 40.5955 32.0807 40.2283 34.1112 39.9048C34.4625 39.8486 34.826 39.7908 35.1742 39.7473C35.3048 39.731 35.3441 39.7666 35.3705 39.7898C35.815 40.1853 35.8019 42.0742 35.7923 43.4536C35.7794 45.3616 35.7672 47.1638 36.4779 48.0891C36.8404 48.5608 37.3509 48.802 37.9493 48.802C38.308 48.802 38.6976 48.7156 39.1063 48.5403C40.8736 47.7834 42.7108 45.5056 42.4305 43.7034C42.1857 42.1277 42.0235 41.0867 42.4056 40.2476C42.7589 39.4709 43.6129 38.7519 45.2948 37.8345C45.4962 38.7415 45.5978 39.6851 45.5873 40.6531C45.5514 43.9573 44.2306 47.0498 41.8685 49.3606C39.2286 51.9431 35.5184 53.2185 31.8483 52.814C31.1004 52.7329 30.9713 53.8965 31.7201 53.979C35.7374 54.4214 39.7992 53.0249 42.6879 50.1985C45.274 47.6685 46.7198 44.2832 46.7591 40.6655C46.8114 35.8689 44.3502 31.6194 40.6036 29.1714C41.3778 28.6194 41.9545 28.1421 42.2743 27.865C43.6402 28.845 44.8519 30.0522 45.86 31.4587C48.2799 34.8359 49.2396 38.9529 48.5629 43.052C47.1651 51.5137 39.1444 57.2615 30.6813 55.8633C26.5819 55.1863 22.9918 52.9539 20.5719 49.5767C18.1517 46.1997 17.192 42.0823 17.869 37.9834C17.9906 37.2458 16.8351 37.0522 16.713 37.7925C15.9847 42.2004 17.0172 46.6279 19.619 50.2595C22.2213 53.8906 26.0824 56.2915 30.4903 57.0198C31.4122 57.1719 32.3351 57.2471 33.2516 57.2471C36.7159 57.2471 40.086 56.1714 42.9579 54.1135C46.59 51.5112 48.9911 47.6509 49.7189 43.2429C50.2523 40.0129 49.8395 36.7725 48.5572 33.8423C49.149 33.6677 50.1561 33.3289 51.2591 32.7781C53.5619 31.6282 55.171 30.093 55.912 28.3393C56.6537 26.5852 56.6329 24.3616 55.8522 21.9089ZM21.8419 38.0212C22.2779 38.8479 22.6903 39.6291 23.1188 39.9875C23.4222 40.2412 23.8446 40.3711 24.2916 40.5085C25.4369 40.8606 25.5699 41.0334 25.4601 41.4863C25.3253 42.0432 25.0001 42.7082 24.6859 43.3511C24.0807 44.5894 23.5091 45.7583 24.0509 46.603C24.8192 47.8003 24.9508 48.979 24.9376 49.7122C21.4474 46.5649 20.0262 41.594 21.3263 37.0759C21.4986 37.3713 21.6798 37.7146 21.8419 38.0212ZM50.1927 26.5059L48.5275 22.4702C49.3378 21.7124 50.2779 21.1421 51.0787 20.7405C51.7609 20.3982 52.4098 20.1423 52.9303 19.9609L50.1927 26.5059ZM54.0106 20.4153C54.2433 20.9153 54.5131 21.56 54.7435 22.2888C54.9962 23.0886 55.2281 24.0798 55.2743 25.1138L51.3717 26.7239L54.0106 20.4153ZM47.0045 24.5752C47.1774 24.1665 47.4007 23.7876 47.6588 23.4377L49.5546 28.0312L47.8534 32.0991C47.6144 31.592 47.3329 30.926 47.0941 30.1694C46.6149 28.6545 46.2106 26.4538 47.0045 24.5752ZM50.7587 31.7178C50.1022 32.0474 49.4757 32.2969 48.9654 32.4768L50.7308 28.2563L55.2245 26.4021C55.1593 26.9055 55.035 27.4045 54.8326 27.883C54.0389 29.7617 52.1791 31.0056 50.7587 31.7178ZM29.629 31.3843C29.422 31.3437 29.2176 31.2942 29.0162 31.2378L35.5016 26.4839L40.8417 27.5247C38.8963 29.0574 34.1622 32.2725 29.629 31.3843ZM23.702 27.718C22.315 26.2231 21.2984 24.6247 20.7147 23.6013L27.5104 24.9263L23.702 27.718ZM24.9022 19.8999L27.7455 23.7781L20.9059 22.4448C21.7669 21.7649 23.1883 20.7441 24.9022 19.8999ZM29.4408 24.1086L25.9938 19.4067C27.0257 18.9827 28.1334 18.6489 29.2689 18.5005L34.0375 25.0044L29.4408 24.1086ZM29.076 25.2314L33.9361 26.1787L27.6986 30.7507C26.5223 30.2075 25.4637 29.4265 24.5375 28.5583L29.076 25.2314ZM44.9764 36.6743C42.8639 37.7998 41.8295 38.6838 41.3387 39.7622C40.8116 40.9202 41.0047 42.1631 41.2721 43.8833C41.43 44.8977 40.2245 46.7866 38.6449 47.4631C38.0604 47.7134 37.6441 47.6838 37.4071 47.375C36.9415 46.769 36.9542 44.9351 36.9642 43.4617C36.9781 41.4231 36.9903 39.6626 36.1493 38.9143C35.8468 38.6453 35.4598 38.5315 35.0299 38.5842C34.6615 38.6301 34.2877 38.6897 33.9266 38.7473C31.7726 39.0906 30.4171 39.228 29.7149 37.7844C28.5773 35.4463 30.8802 33.7143 31.9232 33.0784C32.1356 32.949 32.3326 32.7964 32.5157 32.6265C35.0365 32.3252 37.4183 31.2436 39.5409 29.8889C42.0858 31.4094 44.0394 33.8157 44.9764 36.6743Z" fill="#3E767B"/>
<circle cx="36.4694" cy="35.8889" r="35.2145" stroke="#3E767B" stroke-opacity="0.2"/>
<circle cx="36.4692" cy="35.8889" r="29.2397" stroke="#3E767B" stroke-opacity="0.2"/>
<circle cx="42.6273" cy="7.35406" r="3.18243" fill="#67AFA8"/>
<circle cx="56.4533" cy="57.2473" r="2.55196" fill="#67AFA8"/>
</svg>
