<svg width="20" height="21" viewBox="0 0 20 21" fill="none" xmlns="http://www.w3.org/2000/svg">
<path d="M17.0711 13.5087C15.9819 12.4196 14.6855 11.6133 13.2711 11.1252C14.786 10.0818 15.7812 8.33562 15.7812 6.36108C15.7812 3.17331 13.1878 0.579834 10 0.579834C6.81223 0.579834 4.21875 3.17331 4.21875 6.36108C4.21875 8.33562 5.21402 10.0818 6.72898 11.1252C5.31453 11.6133 4.01813 12.4196 2.92895 13.5087C1.0402 15.3975 0 17.9087 0 20.5798H1.5625C1.5625 15.9274 5.34754 12.1423 10 12.1423C14.6525 12.1423 18.4375 15.9274 18.4375 20.5798H20C20 17.9087 18.9598 15.3975 17.0711 13.5087ZM10 10.5798C7.67379 10.5798 5.78125 8.68733 5.78125 6.36108C5.78125 4.03483 7.67379 2.14233 10 2.14233C12.3262 2.14233 14.2188 4.03483 14.2188 6.36108C14.2188 8.68733 12.3262 10.5798 10 10.5798Z" fill="#3E767B"/>
</svg>
