<svg width="21" height="22" viewBox="0 0 21 22" fill="none" xmlns="http://www.w3.org/2000/svg">
<path d="M0.317453 5.63591L0.416394 5.65042L0.317452 5.63591C0.180367 6.57065 0.277201 7.50216 0.604657 8.40367L0.698648 8.36952L0.604657 8.40367C1.61139 11.1751 3.25094 13.7473 5.3463 15.8426C7.44166 17.9379 10.0138 19.5775 12.7852 20.5842C13.4218 20.8155 14.0735 20.9318 14.731 20.9318C15.0043 20.9317 15.2786 20.9117 15.5529 20.8714C16.4285 20.743 17.278 20.404 18.01 19.891C18.7454 19.3758 19.357 18.6889 19.7789 17.9043C20.2289 17.0676 20.457 16.1541 20.457 15.1904C20.457 14.8486 20.2182 14.5532 19.884 14.4815L19.863 14.5793L19.884 14.4815L15.3061 13.5006L15.306 13.5005C15.0657 13.4491 14.8154 13.5229 14.6415 13.6968L14.6415 13.6968L13.0165 15.3218C9.94269 13.7586 7.43025 11.2461 5.86701 8.17228L7.49201 6.54731L7.49202 6.5473C7.66587 6.3734 7.73977 6.1232 7.68826 5.88274L7.68826 5.88274L6.70728 1.30484L6.70728 1.30483C6.63564 0.970617 6.34022 0.731787 5.99839 0.731787C5.03466 0.731787 4.12124 0.959894 3.28454 1.40982L3.3319 1.49789L3.28454 1.40982C2.49992 1.83175 1.81308 2.44338 1.29786 3.17872L1.37975 3.2361L1.29785 3.17872C0.78489 3.91085 0.445867 4.76035 0.317453 5.63591ZM2.48532 4.0108L2.48532 4.0108C3.18788 3.00807 4.23611 2.37488 5.42039 2.21931L6.18787 5.80094L4.47579 7.51302C4.47579 7.51302 4.47579 7.51302 4.47579 7.51303C4.2597 7.72908 4.20234 8.0574 4.33224 8.33392L4.42275 8.2914C6.16956 12.0096 9.17928 15.0193 12.8975 16.7661L12.8549 16.8566C12.855 16.8566 12.855 16.8566 12.855 16.8566C13.1315 16.9866 13.4598 16.9292 13.6759 16.7131L15.3879 15.001L18.9696 15.7685C18.814 16.9528 18.1808 18.001 17.1781 18.7036C16.0225 19.5133 14.6026 19.7018 13.2802 19.2214C8.00649 17.3057 3.88322 13.1824 1.96747 7.90864C1.4871 6.58625 1.67565 5.16635 2.48532 4.0108Z" fill="#3E767B" stroke="#3E767B" stroke-width="0.2"/>
</svg>
