<svg width="20" height="26" viewBox="0 0 20 26" fill="none" xmlns="http://www.w3.org/2000/svg">
<path fill-rule="evenodd" clip-rule="evenodd" d="M18.7828 7.06992L19.8993 21.1381C19.9858 22.2667 19.595 23.3884 18.8271 24.2174C18.0592 25.0465 16.9706 25.522 15.8406 25.522H4.15942C3.02939 25.522 1.94087 25.0464 1.17299 24.2174C0.405123 23.3884 0.014254 22.2667 0.10068 21.14L1.21748 7.06802C1.28681 6.16353 2.05337 5.45356 2.9624 5.45356H5.16757V5.35444C5.16757 2.6898 7.3354 0.521973 10 0.521973C12.6647 0.521973 14.8325 2.6898 14.8325 5.35444V5.45356H17.0377C17.9467 5.45356 18.7132 6.16357 18.7828 7.06992ZM10 1.98633C8.14292 1.98633 6.63193 3.49727 6.63193 5.35444V5.45356H13.3682V5.35444C13.3682 3.49731 11.8572 1.98633 10 1.98633ZM15.8406 24.0576C16.5748 24.0576 17.2538 23.761 17.7527 23.2224C18.2516 22.6837 18.4955 21.984 18.4394 21.252L17.3229 7.18384C17.3114 7.03389 17.1862 6.91792 17.0377 6.91792H14.8325V8.72139C14.8325 9.12573 14.5047 9.45356 14.1003 9.45356C13.696 9.45356 13.3682 9.12573 13.3682 8.72139V6.91792H6.63193V8.72139C6.63193 9.12573 6.3041 9.45356 5.89975 9.45356C5.49541 9.45356 5.16757 9.12573 5.16757 8.72139V6.91792H2.9624C2.81391 6.91792 2.68872 7.03384 2.67739 7.18188L1.56069 21.2539C1.50463 21.984 1.74848 22.6838 2.24736 23.2224C2.74629 23.761 3.42529 24.0576 4.15947 24.0576H15.8406ZM12.262 12.9382C12.5479 12.6523 13.0115 12.6523 13.2973 12.9382C13.5833 13.2242 13.5833 13.6877 13.2973 13.9737L9.51026 17.7607C9.36734 17.9037 9.17989 17.9752 8.99258 17.9752C8.80528 17.9752 8.61787 17.9037 8.47491 17.7607L6.70005 15.9859C6.41411 15.6999 6.41411 15.2364 6.70005 14.9504C6.98599 14.6645 7.44961 14.6645 7.7355 14.9504L8.99263 16.2075L12.262 12.9382Z" fill="#3E767B"/>
</svg>
