<svg width="70" height="71" viewBox="0 0 70 71" fill="none" xmlns="http://www.w3.org/2000/svg">
<path fill-rule="evenodd" clip-rule="evenodd" d="M20.644 0.275391C23.7518 0.275391 25.6797 2.05629 26.7964 3.69746C27.9132 2.05629 29.841 0.275391 32.9487 0.275391C37.3266 0.275391 40.4683 3.80273 40.4683 8.06426C40.4683 12.7919 36.6422 15.8969 30.8505 20.5967C29.8356 21.4202 28.7863 22.2718 27.6715 23.2007C27.4181 23.4119 27.1073 23.5174 26.7964 23.5174C26.4855 23.5174 26.1747 23.4119 25.9213 23.2007C24.8064 22.2718 23.7571 21.4202 22.7423 20.5967C16.9506 15.8969 13.1245 12.7919 13.1245 8.06426C13.1245 3.80615 16.2629 0.275391 20.644 0.275391ZM29.1276 18.4735C34.3102 14.2679 37.7339 11.4893 37.7339 8.06426C37.7339 5.18277 35.6767 3.00977 32.9487 3.00977C29.3436 3.00977 28.1222 7.10654 28.1101 7.14797C27.9415 7.7334 27.4057 8.13672 26.7964 8.13672C26.187 8.13672 25.6512 7.73353 25.4827 7.14797C25.4339 6.98391 24.2134 3.00977 20.644 3.00977C17.9161 3.00977 15.8589 5.18277 15.8589 8.06426C15.8589 11.4894 19.2826 14.2677 24.4648 18.4732L24.4652 18.4735L24.4654 18.4736L24.4672 18.4751L24.4688 18.4764C25.2208 19.0867 25.9917 19.7124 26.7964 20.3751C27.6023 19.7112 28.3744 19.0846 29.1276 18.4735ZM1.36718 48.9473C0.862964 48.9473 0.399624 48.6698 0.161733 48.2253C-0.0761573 47.7807 -0.050044 47.2413 0.229683 46.8217L8.43281 34.517C8.68628 34.1367 9.11312 33.9082 9.57031 33.9082H42.9297C43.6848 33.9082 44.2969 34.5203 44.2969 35.2754C44.2969 36.0305 43.6848 36.6426 42.9297 36.6426H37.5546L43.9348 46.2129H66.0782L59.698 36.6426H55.2344C54.4793 36.6426 53.8672 36.0305 53.8672 35.2754C53.8672 34.5203 54.4793 33.9082 55.2344 33.9082H60.4297C60.8867 33.9082 61.3137 34.1367 61.5672 34.517L69.7703 46.8217C70.05 47.2413 70.0761 47.7807 69.8383 48.2253C69.6004 48.6698 69.137 48.9473 68.6328 48.9473H61.7969V68.9082C61.7969 69.6632 61.1848 70.2754 60.4297 70.2754H9.57031C8.81521 70.2754 8.20312 69.6632 8.20312 68.9082V48.9473H1.36718ZM26.7969 48.9473H10.9375V67.541H33.6328V39.7908L27.9344 48.3385C27.6809 48.7188 27.2541 48.9473 26.7969 48.9473ZM43.2031 48.9473C42.7461 48.9473 42.3191 48.7188 42.0656 48.3385L36.3672 39.7908V67.541H59.0625V48.9473H43.2031ZM32.4454 36.6426H10.302L3.92177 46.2129H26.0652L32.4454 36.6426ZM51.4069 27.6191C51.7283 27.6191 52.0496 27.5063 52.3073 27.2807C53.0446 26.6354 53.7398 26.0429 54.4119 25.47L54.412 25.4699L54.4267 25.4574L54.4274 25.4569C58.2299 22.2162 60.9772 19.8748 60.9772 16.3917C60.9772 13.1043 58.5751 10.5292 55.5085 10.5292C53.5569 10.5292 52.2485 11.5216 51.4069 12.5846C50.5653 11.5216 49.257 10.5292 47.3053 10.5292C44.2387 10.5292 41.8366 13.1043 41.8366 16.3917C41.8366 19.8748 44.5839 22.2162 48.3864 25.4569L48.3871 25.4574C49.0639 26.0342 49.7638 26.6307 50.5065 27.2807C50.7642 27.5063 51.0856 27.6191 51.4069 27.6191ZM44.571 16.3917C44.571 14.8752 45.5292 13.2636 47.3053 13.2636C49.3206 13.2636 50.0563 15.7352 50.0902 15.853C50.255 16.4437 50.7924 16.8559 51.4059 16.8559C52.0217 16.8559 52.5605 16.4478 52.7235 15.8539C52.7537 15.7482 53.4879 13.2636 55.5085 13.2636C57.2846 13.2636 58.2428 14.8752 58.2428 16.3917C58.2428 18.6126 56.1389 20.4056 52.6532 23.3761L52.6106 23.4124C52.2189 23.7463 51.8192 24.0869 51.4069 24.4418C50.9797 24.0741 50.5661 23.7216 50.1606 23.3761C46.6749 20.4056 44.571 18.6126 44.571 16.3917ZM50.4483 35.2754C50.4483 36.0305 49.8362 36.6426 49.0811 36.6426C48.3261 36.6426 47.714 36.0305 47.714 35.2754C47.714 34.5203 48.3261 33.9082 49.0811 33.9082C49.8362 33.9082 50.4483 34.5203 50.4483 35.2754Z" fill="url(#paint0_linear)"/>
<defs>
<linearGradient id="paint0_linear" x1="51.1562" y1="8.70139" x2="7.39184" y2="70.2754" gradientUnits="userSpaceOnUse">
<stop stop-color="#FED8F9"/>
<stop offset="1" stop-color="#A8DBD5"/>
</linearGradient>
</defs>
</svg>
