<svg width="40" height="39" viewBox="0 0 40 39" fill="none" xmlns="http://www.w3.org/2000/svg">
<g clip-path="url(#clip0)">
<path d="M39.3122 19.4662C39.3122 29.8327 30.7299 38.2361 20.1429 38.2361C9.55587 38.2361 0.973633 29.8327 0.973633 19.4662C0.973633 9.09973 9.55587 0.696289 20.1429 0.696289C30.7299 0.696289 39.3122 9.09973 39.3122 19.4662Z" fill="url(#paint0_linear)"/>
<path d="M25.6563 32.4438H14.6285C10.3606 32.4438 6.88867 29.0442 6.88867 24.8652V14.0671C6.88867 9.88817 10.3606 6.48853 14.6285 6.48853H25.6563C29.9242 6.48853 33.3962 9.88817 33.3962 14.0671V24.8652C33.3962 29.0442 29.9242 32.4438 25.6563 32.4438ZM14.6285 8.68812C11.5994 8.68812 9.13507 11.1011 9.13507 14.0671V24.8652C9.13507 27.8312 11.5994 30.2442 14.6285 30.2442H25.6563C28.6855 30.2442 31.1498 27.8312 31.1498 24.8652V14.0671C31.1498 11.1011 28.6855 8.68812 25.6563 8.68812H14.6285Z" fill="white"/>
<path d="M20.1426 26.5049C16.1789 26.5049 12.9541 23.3473 12.9541 19.4662C12.9541 15.5851 16.1789 12.4275 20.1426 12.4275C24.1062 12.4275 27.3311 15.5851 27.3311 19.4662C27.3311 23.3473 24.1062 26.5049 20.1426 26.5049ZM20.1426 14.6271C17.4174 14.6271 15.2005 16.7978 15.2005 19.4662C15.2005 22.1347 17.4174 24.3053 20.1426 24.3053C22.8678 24.3053 25.0847 22.1347 25.0847 19.4662C25.0847 16.7978 22.8678 14.6271 20.1426 14.6271Z" fill="white"/>
<path d="M28.3658 12.42C28.3658 12.976 27.9054 13.4268 27.3377 13.4268C26.77 13.4268 26.3096 12.976 26.3096 12.42C26.3096 11.8641 26.77 11.4133 27.3377 11.4133C27.9054 11.4133 28.3658 11.8641 28.3658 12.42Z" fill="white"/>
</g>
<defs>
<linearGradient id="paint0_linear" x1="0.973633" y1="21.8694" x2="37.4586" y2="4.46089" gradientUnits="userSpaceOnUse">
<stop stop-color="#FFED4A"/>
<stop offset="0.489483" stop-color="#EB40E4"/>
<stop offset="1" stop-color="#8E3DDF"/>
</linearGradient>
<clipPath id="clip0">
<rect width="38.3385" height="37.5398" fill="white" transform="translate(0.973633 0.696289)"/>
</clipPath>
</defs>
</svg>
