<svg width="21" height="22" viewBox="0 0 21 22" fill="none" xmlns="http://www.w3.org/2000/svg">
<path d="M2.48404 4.34893L2.48404 4.34894C1.67437 5.50449 1.48582 6.92438 1.96619 8.24678C3.88194 13.5205 8.00521 17.6438 13.279 19.5595C14.6013 20.0399 16.0212 19.8514 17.1768 19.0417C18.1795 18.3391 18.8127 17.2909 18.9683 16.1066L15.3867 15.3391L13.6746 17.0512C13.4585 17.2673 13.1302 17.3247 12.8537 17.1948C12.8537 17.1948 12.8537 17.1948 12.8537 17.1948L12.8962 17.1043L2.48404 4.34893ZM2.48404 4.34893C3.1866 3.3462 4.23482 2.71301 5.41911 2.55744M2.48404 4.34893L5.41911 2.55744M5.41911 2.55744L6.18659 6.13908L4.47451 7.85115C4.47451 7.85116 4.47451 7.85116 4.47451 7.85116C4.25841 8.06721 4.20106 8.39554 4.33096 8.67206L4.42147 8.62954L5.41911 2.55744ZM0.316171 5.97404L0.415112 5.98855L0.316171 5.97404C0.179085 6.90878 0.275919 7.84029 0.603375 8.7418L0.697366 8.70766L0.603376 8.7418C1.61011 11.5132 3.24966 14.0854 5.34502 16.1807C7.44037 18.276 10.0125 19.9156 12.7839 20.9224C13.4205 21.1536 14.0722 21.2699 14.7298 21.2699C15.0031 21.2699 15.2774 21.2498 15.5516 21.2095C16.4272 21.0811 17.2767 20.7421 18.0088 20.2291C18.7441 19.7139 19.3557 19.0271 19.7777 18.2424C20.2276 17.4057 20.4557 16.4923 20.4557 15.5286C20.4557 15.1867 20.217 14.8913 19.8827 14.8197L19.8617 14.9174L19.8827 14.8197L15.3048 13.8387L15.3048 13.8387C15.0644 13.7873 14.8141 13.8611 14.6402 14.0349L14.6402 14.0349L13.0153 15.6599C9.94141 14.0967 7.42897 11.5843 5.86572 8.51041L7.49073 6.88544L7.49074 6.88543C7.66459 6.71154 7.73849 6.46134 7.68697 6.22087L7.58919 6.24182L7.68697 6.22087L6.706 1.64297L6.706 1.64297C6.63436 1.30875 6.33894 1.06992 5.99711 1.06992C5.03338 1.06992 4.11996 1.29803 3.28326 1.74795L3.33062 1.83603L3.28326 1.74795C2.49864 2.16989 1.8118 2.78151 1.29657 3.51685L1.37847 3.57424L1.29657 3.51686C0.783608 4.24898 0.444586 5.09848 0.316171 5.97404Z" fill="#3E767B" stroke="#3E767B" stroke-width="0.2"/>
</svg>
