<svg width="21" height="21" viewBox="0 0 21 21" fill="none" xmlns="http://www.w3.org/2000/svg">
<path d="M17.4282 13.1484C16.339 12.0592 15.0426 11.253 13.6282 10.7649C15.1431 9.72147 16.1384 7.97526 16.1384 6.00073C16.1384 2.81296 13.5449 0.219482 10.3571 0.219482C7.16934 0.219482 4.57587 2.81296 4.57587 6.00073C4.57587 7.97526 5.57114 9.72147 7.0861 10.7649C5.67165 11.253 4.37524 12.0592 3.28606 13.1484C1.39731 15.0372 0.357117 17.5484 0.357117 20.2195H1.91962C1.91962 15.567 5.70466 11.782 10.3571 11.782C15.0096 11.782 18.7946 15.567 18.7946 20.2195H20.3571C20.3571 17.5484 19.3169 15.0372 17.4282 13.1484ZM10.3571 10.2195C8.03091 10.2195 6.13837 8.32698 6.13837 6.00073C6.13837 3.67448 8.03091 1.78198 10.3571 1.78198C12.6833 1.78198 14.5759 3.67448 14.5759 6.00073C14.5759 8.32698 12.6833 10.2195 10.3571 10.2195Z" fill="#3E767B"/>
</svg>
