<svg width="16" height="21" viewBox="0 0 16 21" fill="none" xmlns="http://www.w3.org/2000/svg">
<path fill-rule="evenodd" clip-rule="evenodd" d="M14.5315 7.94926H15.2458C15.6403 7.94926 15.9601 8.26906 15.9601 8.66352V20.0921C15.9601 20.4866 15.6403 20.8064 15.2458 20.8064H0.960088C0.565585 20.8064 0.245789 20.4866 0.245789 20.0921V8.66356C0.245789 8.26906 0.565585 7.94926 0.960088 7.94926H1.67434V7.23496C1.67828 3.68619 4.55414 0.810331 8.10291 0.806396C11.6517 0.810331 14.5275 3.68619 14.5315 7.23496V7.94926ZM8.10295 2.23495C5.34152 2.23495 3.10294 4.47353 3.10294 7.23496V7.94926H13.1029V7.23496C13.1029 4.47353 10.8644 2.23495 8.10295 2.23495ZM1.67434 9.37782V19.3778H14.5315V9.37782H1.67434ZM8.10221 11.5205C9.01062 11.5188 9.82089 12.0913 10.1227 12.9481C10.515 14.0618 9.93017 15.2826 8.81651 15.6748V17.2348C8.81651 17.6293 8.49676 17.9491 8.10225 17.9491C7.70775 17.9491 7.38795 17.6293 7.38795 17.2348V15.6748C6.53114 15.373 5.95859 14.5627 5.96031 13.6543C5.96253 12.4736 6.9215 11.5183 8.10221 11.5205ZM7.38791 13.6634C7.38791 14.0579 7.70771 14.3777 8.10221 14.3777C8.49671 14.3777 8.81651 14.0579 8.81651 13.6634C8.81651 13.2689 8.49671 12.9491 8.10221 12.9491C7.70771 12.9491 7.38791 13.2689 7.38791 13.6634Z" fill="#3E767B"/>
</svg>
